<svg width="32" height="32" viewBox="0 0 32 32" fill="none" xmlns="http://www.w3.org/2000/svg">
<rect width="32" height="32" fill="white"/>
<path fill-rule="evenodd" clip-rule="evenodd" d="M21.4286 8.71429V11H22C23.6569 11 25 12.3431 25 14V20V26C25 27.6569 23.6569 29 22 29H16H10C8.34315 29 7 27.6569 7 26V20V14C7 12.3431 8.34315 11 10 11H16H19.1429V8.71429C19.1429 7.80497 18.7816 6.9329 18.1387 6.28992C17.4957 5.64694 16.6236 5.28571 15.7143 5.28571C14.805 5.28571 13.9329 5.64694 13.2899 6.28992C12.6469 6.9329 12.2857 7.80497 12.2857 8.71429H10C10 7.19876 10.602 5.74531 11.6737 4.67368C12.7453 3.60204 14.1988 3 15.7143 3C16.4647 3 17.2078 3.1478 17.901 3.43497C18.5943 3.72214 19.2243 4.14306 19.7549 4.67368C20.2855 5.2043 20.7064 5.83423 20.9936 6.52752C21.2808 7.22081 21.4286 7.96388 21.4286 8.71429ZM19.6036 20.7902C19.2931 20.3177 19.069 19.9775 18.2158 20.1125C16.6048 20.3681 16.4257 20.6498 16.3492 21.1142L16.3276 21.2546L16.3051 21.404C16.2178 22.0187 16.2205 22.2509 16.5031 22.547C17.6416 23.7422 18.3238 24.6035 18.5308 25.1075C18.6316 25.3532 18.8908 26.0975 18.7126 26.8337C19.805 26.3986 20.7774 25.7082 21.5485 24.8204C21.6475 24.4838 21.7195 24.0644 21.7195 23.5568V23.4623C21.7195 22.6325 21.7195 22.2536 21.1327 21.9179C20.9441 21.811 20.7504 21.7133 20.5522 21.6254L20.5475 21.6233C20.2198 21.4742 20.0018 21.375 19.708 20.945C19.6724 20.894 19.6376 20.8424 19.6036 20.7902ZM16 12.6497C13.9147 12.6497 12.031 13.5191 10.6936 14.9141C10.8529 15.0248 10.9915 15.1805 11.0869 15.3947C11.2705 15.806 11.2705 16.2299 11.2705 16.6052C11.2705 16.9004 11.2705 17.1812 11.365 17.3837C11.4946 17.6609 12.0544 17.7797 12.5485 17.8823L12.5893 17.891C12.7536 17.9259 12.9203 17.9614 13.0732 18.0038C13.5286 18.1298 13.8814 18.5393 14.1631 18.8678C14.2801 19.0037 14.4538 19.2044 14.5411 19.2548C14.5861 19.2224 14.731 19.0649 14.8021 18.8066C14.8579 18.6086 14.8417 18.434 14.7616 18.3386C14.2576 17.7446 14.2855 16.6016 14.4412 16.1795C14.6859 15.5147 15.4503 15.5639 16.01 15.5999L16.0108 15.5999L16.0278 15.601C16.2302 15.6141 16.4198 15.6264 16.5634 15.608C16.9874 15.5548 17.1894 15.0529 17.3153 14.7402L17.3153 14.7402C17.3555 14.6401 17.388 14.5594 17.4175 14.519C17.6803 14.159 18.4849 13.6163 18.9835 13.2815C18.0443 12.8639 17.0278 12.6486 16 12.6497Z" fill="black"/>
</svg>
