<?xml version="1.0" encoding="utf-8"?>
<!-- Generator: Adobe Illustrator 27.5.0, SVG Export Plug-In . SVG Version: 6.00 Build 0)  -->
<svg version="1.1" id="圖層_1" xmlns="http://www.w3.org/2000/svg" xmlns:xlink="http://www.w3.org/1999/xlink" x="0px" y="0px"
	 viewBox="0 0 400 400" style="enable-background:new 0 0 400 400;" xml:space="preserve">
<style type="text/css">
	.st0{fill:#FFFFFF;}
	.st1{opacity:0.4;fill:none;stroke:#00977F;stroke-width:2;stroke-linejoin:round;stroke-miterlimit:10;enable-background:new    ;}
	.st2{opacity:0.1;fill:#00977F;enable-background:new    ;}
	.st3{fill-rule:evenodd;clip-rule:evenodd;fill:#00977F;}
	.st4{fill-rule:evenodd;clip-rule:evenodd;fill:#D5D5D6;}
	.st5{fill-rule:evenodd;clip-rule:evenodd;fill:#0093C8;}
	.st6{fill-rule:evenodd;clip-rule:evenodd;fill:#00658B;}
	.st7{fill:#231815;}
</style>
<rect class="st0" width="400" height="400"/>
<path class="st1" d="M90.3,72h219.4c10.1,0,18.3,6.4,18.3,14.2v227.6c0,7.8-8.2,14.2-18.3,14.2H90.3c-10.1,0-18.3-6.4-18.3-14.2
	V86.2C72,78.4,80.2,72,90.3,72z"/>
<path class="st2" d="M309.7,72H90.3C80.2,72,72,78.4,72,86.2v227.6c0,7.8,8.2,14.2,18.3,14.2h219.4c10.1,0,18.3-6.4,18.3-14.2V86.2
	C328,78.4,319.8,72,309.7,72z"/>
<path class="st3" d="M219.3,240c0,0,5.8,23.5,12.8,29.1c7,5.6,14.8,4.6,19.9-3c5-7.6,3.4-18.3-3.6-23.9
	C241.3,236.6,219.3,240,219.3,240z M272.8,289.3c17.1,11.8,32.5,22.5,37.6,14.9c4.5-6.7-20.1-27.2-41.4-41.8
	c-0.6,4.8-2.2,9.3-5,13.5c-1.2,1.7-2.5,3.4-3.9,4.8C264.4,283.5,268.7,286.4,272.8,289.3z"/>
<g>
	<polyline class="st4" points="170.6,114.9 108.3,204.8 170.6,204.8 174.3,117.6 	"/>
	<path class="st5" d="M100.5,108v103.7h77.8V108H100.5z M170.6,204.8h-62.4v-89.9h62.4V204.8z"/>
	<polygon class="st6" points="170.6,204.8 219.3,240 219.3,150.1 170.6,114.9 	"/>
</g>
<g>
	<path class="st7" d="M112.4,214c11,11.9,25.8,20.1,41.5,23.9c15.8,3.8,32.4,2.7,48.2-0.9c-7.7,2.6-15.8,4.3-24.1,4.8
		C153.5,243.6,127.4,233.8,112.4,214L112.4,214z"/>
</g>
</svg>
